HIERARCHY
ROOT Hips
{
	OFFSET 0.000000 0.000000 0.000000
	CHANNELS 6 Xposition Yposition Zposition Zrotation Yrotation Xrotation 
	JOINT LHipJoint
	{
		OFFSET 0.000000 0.000000 0.000000
		CHANNELS 3 Zrotation Yrotation Xrotation
		JOINT LeftUpLeg
		{
			OFFSET 1.363060 -1.794630 0.839290
			CHANNELS 3 Zrotation Yrotation Xrotation
			JOINT LeftLeg
			{
				OFFSET 2.448110 -6.726130 0.000000
				CHANNELS 3 Zrotation Yrotation Xrotation
				JOINT LeftFoot
				{
					OFFSET 2.562200 -7.039590 0.000000
					CHANNELS 3 Zrotation Yrotation Xrotation
					JOINT LeftToeBase
					{
						OFFSET 0.157640 -0.433110 2.322550
						CHANNELS 3 Zrotation Yrotation Xrotation
						End Site
						{
							OFFSET 0.000000 0.000000 0.000000
						}
					}
				}
			}
		}
	}
	JOINT RHipJoint
	{
		OFFSET 0.000000 0.000000 0.000000
		CHANNELS 3 Zrotation Yrotation Xrotation
		JOINT RightUpLeg
		{
			OFFSET -1.305520 -1.794630 0.839290
			CHANNELS 3 Zrotation Yrotation Xrotation
			JOINT RightLeg
			{
				OFFSET -2.542530 -6.985550 0.000000
				CHANNELS 3 Zrotation Yrotation Xrotation
				JOINT RightFoot
				{
					OFFSET -2.568260 -7.056230 0.000000
					CHANNELS 3 Zrotation Yrotation Xrotation
					JOINT RightToeBase
					{
						OFFSET -0.164730 -0.452590 2.363150
						CHANNELS 3 Zrotation Yrotation Xrotation
						End Site
						{
							OFFSET 0.000000 0.000000 0.000000
						}
					}
				}
			}
		}
	}
	JOINT LowerBack
	{
		OFFSET 0.000000 0.000000 0.000000
		CHANNELS 3 Zrotation Yrotation Xrotation
		JOINT Spine
		{
			OFFSET 0.028270 2.035590 -0.193380
			CHANNELS 3 Zrotation Yrotation Xrotation
			JOINT Spine1
			{
				OFFSET 0.056720 2.048850 -0.042750
				CHANNELS 3 Zrotation Yrotation Xrotation
				JOINT Neck
				{
					OFFSET 0.000000 0.000000 0.000000
					CHANNELS 3 Zrotation Yrotation Xrotation
					JOINT Neck1
					{
						OFFSET -0.054170 1.746240 0.172020
						CHANNELS 3 Zrotation Yrotation Xrotation
						JOINT Head
						{
							OFFSET 0.104070 1.761360 -0.123970
							CHANNELS 3 Zrotation Yrotation Xrotation
							End Site
							{
								OFFSET 0.000000 0.000000 0.000000
							}
						}
					}
				}
				JOINT LeftShoulder
				{
					OFFSET 0.000000 0.000000 0.000000
					CHANNELS 3 Zrotation Yrotation Xrotation
					JOINT LeftArm
					{
						OFFSET 3.362410 1.200890 -0.311210
						CHANNELS 3 Zrotation Yrotation Xrotation
						JOINT LeftForeArm
						{
							OFFSET 4.983000 -0.000000 -0.000000
							CHANNELS 3 Zrotation Yrotation Xrotation
							JOINT LeftHand
							{
								OFFSET 3.483560 -0.000000 -0.000000
								CHANNELS 3 Zrotation Yrotation Xrotation
								JOINT LeftFingerBase
								{
									OFFSET 0.000000 0.000000 0.000000
									CHANNELS 3 Zrotation Yrotation Xrotation
									JOINT LeftHandIndex1
									{
										OFFSET 0.715260 -0.000000 -0.000000
										CHANNELS 3 Zrotation Yrotation Xrotation
										End Site
										{
											OFFSET 0.000000 0.000000 0.000000
										}
									}
								}
								JOINT LThumb
								{
									OFFSET 0.000000 0.000000 0.000000
									CHANNELS 3 Zrotation Yrotation Xrotation
									End Site
									{
										OFFSET 0.000000 0.000000 0.000000
									}
								}
							}
						}
					}
				}
				JOINT RightShoulder
				{
					OFFSET 0.000000 0.000000 0.000000
					CHANNELS 3 Zrotation Yrotation Xrotation
					JOINT RightArm
					{
						OFFSET -3.136600 1.374050 -0.404650
						CHANNELS 3 Zrotation Yrotation Xrotation
						JOINT RightForeArm
						{
							OFFSET -5.241900 -0.000000 -0.000000
							CHANNELS 3 Zrotation Yrotation Xrotation
							JOINT RightHand
							{
								OFFSET -3.444170 -0.000000 -0.000000
								CHANNELS 3 Zrotation Yrotation Xrotation
								JOINT RightFingerBase
								{
									OFFSET 0.000000 0.000000 0.000000
									CHANNELS 3 Zrotation Yrotation Xrotation
									JOINT RightHandIndex1
									{
										OFFSET -0.622530 -0.000000 -0.000000
										CHANNELS 3 Zrotation Yrotation Xrotation
										End Site
										{
											OFFSET 0.000000 0.000000 0.000000
										}
									}
								}
								JOINT RThumb
								{
									OFFSET 0.000000 0.000000 0.000000
									CHANNELS 3 Zrotation Yrotation Xrotation
									End Site
									{
										OFFSET 0.000000 0.000000 0.000000
									}
								}
							}
						}
					}
				}
			}
		}
	}
}
MOTION
Frames: 9
Frame Time: 0.008333
3.448485 17.020358 -2.366825 -146.136485 84.362619 -139.254873 -13.021552 5.535767 0.458475 -5.507672 13.072445 2.259486 0.083240 2.291137 34.625721 1.481627 -0.481263 27.906718 -1.039501 0.000000 -59.520900 6.785046 -1.711279 4.648464 15.185023 7.528966 -24.578674 4.225391 0.418598 7.559189 1.356123 7.457293 4.614980 1.003000 0.000001 -33.811100 5.876723 -6.081069 -6.234454 1.114114 -6.780971 -3.744591 -5.301041 -6.831103 1.694235 9.231626 -19.941613 -9.673867 -3.126718 -0.226789 -0.439913 0.000000 0.000000 0.000000 -3.907360 4.634258 0.052927 -70.208355 -6.999076 1.999634 -2.329221 -47.373426 -0.022360 7.921223 -1.545130 -0.120796 -0.091239 0.196066 0.000000 0.000000 0.000000 0.000000 0.000000 0.000000 0.000000 15.820600 -19.623484 0.063469 58.714599 -8.643815 -16.675577 3.277147 32.691161 0.005121 -3.418848 3.090339 -0.097828 0.148700 -0.064417 -0.000000 0.000000 0.000000 0.000000 0.000000 0.000000 0.000000 
3.617458 17.033292 -2.402810 -144.410278 83.799805 -137.741667 -13.244703 5.421743 0.225864 -4.563795 14.595381 0.918126 0.220549 2.325415 37.208383 1.739634 2.437574 27.843087 0.468700 -0.000000 -53.920500 6.636334 -1.844350 4.617344 15.888110 7.176576 -23.786018 4.319566 0.418733 7.753213 1.367615 7.617317 4.176295 0.992200 0.000000 -31.787800 6.236036 -5.970092 -6.046024 1.154943 -6.697470 -3.716797 -5.385419 -6.744619 1.683146 9.386311 -19.795716 -9.729746 -3.162305 -0.229155 -0.456920 0.000000 0.000000 0.000000 -3.801961 4.856891 0.048510 -70.898833 -6.504186 1.970860 -2.319062 -46.737707 -0.022187 8.051447 -1.494712 -0.118850 -0.090428 0.190180 0.000000 0.000000 0.000000 0.000000 0.000000 0.000000 0.000000 16.098882 -19.398060 0.053757 58.964720 -7.952478 -16.163377 3.276134 32.617458 0.005244 -3.499426 3.213216 -0.103920 0.147532 -0.065353 -0.000000 0.000000 0.000000 0.000000 0.000000 0.000000 0.000000 
3.782408 17.046106 -2.436271 -143.383649 83.232519 -136.908658 -13.425198 5.291077 -0.004915 -3.749373 15.959963 -0.428161 0.326621 2.377918 39.758393 1.986241 5.513148 27.215352 2.053201 0.000000 -48.083200 6.504209 -1.957531 4.590164 16.513550 6.860307 -22.990322 4.400931 0.430381 7.880758 1.363480 7.673329 3.702892 0.954900 0.000000 -29.901300 6.534563 -5.855645 -5.855639 1.179725 -6.604430 -3.686102 -5.482320 -6.648173 1.674810 9.565605 -19.637922 -9.784797 -3.200499 -0.231725 -0.473710 0.000000 0.000000 0.000000 -3.681082 5.088024 0.047972 -71.505696 -6.006252 2.063455 -2.308042 -46.133441 -0.021893 8.163854 -1.443185 -0.116400 -0.089736 0.184101 0.000000 0.000000 0.000000 0.000000 0.000000 0.000000 0.000000 16.409568 -19.153979 0.043611 59.284985 -7.248122 -15.636861 3.273014 32.544044 0.005403 -3.597737 3.366190 -0.111710 0.146334 -0.066498 -0.000000 0.000000 0.000000 0.000000 0.000000 0.000000 0.000000 
3.943568 17.059070 -2.467332 -142.924222 82.662333 -136.619533 -13.565362 5.151552 -0.223810 -3.073431 17.127566 -1.774929 0.407348 2.451750 42.240804 2.215753 8.542977 26.079513 3.544900 0.000000 -42.461300 6.388998 -2.052690 4.565872 17.061771 6.583182 -22.202268 4.466360 0.450970 7.944136 1.340676 7.594247 3.233060 0.891200 0.000000 -28.222000 6.775668 -5.737385 -5.672014 1.189607 -6.502411 -3.655433 -5.590194 -6.542410 1.665751 9.758679 -19.458778 -9.831372 -3.241624 -0.234636 -0.488133 0.000000 0.000000 0.000000 -3.559112 5.311365 0.051920 -72.016882 -5.484721 2.272109 -2.296442 -45.577780 -0.021440 8.245874 -1.388794 -0.113145 -0.089034 0.177785 0.000000 0.000000 0.000000 0.000000 0.000000 0.000000 0.000000 16.737755 -18.882435 0.034132 59.680208 -6.545261 -15.120465 3.267689 32.466289 0.005605 -3.715062 3.555351 -0.121598 0.145125 -0.067959 -0.000000 0.000000 0.000000 0.000000 0.000000 0.000000 0.000000 
4.101219 17.072435 -2.495860 -142.997786 82.097608 -136.837808 -13.662999 5.012750 -0.419969 -2.562116 18.061639 -3.115951 0.468818 2.546663 44.621333 2.423979 11.363351 24.538299 4.812800 -0.000000 -37.431100 6.299694 -2.130819 4.536845 17.521807 6.317822 -21.445866 4.510866 0.474029 7.976193 1.299933 7.385052 2.795144 0.808100 -0.000001 -26.911300 6.946273 -5.616338 -5.498768 1.182339 -6.391735 -3.624788 -5.707900 -6.427723 1.658763 9.964712 -19.259074 -9.870329 -3.285715 -0.237872 -0.500462 0.000000 0.000000 0.000000 -3.441812 5.547880 0.060252 -72.427039 -4.964527 2.612079 -2.286814 -45.054553 -0.020809 8.288734 -1.332928 -0.109284 -0.088395 0.171243 0.000000 0.000000 0.000000 0.000000 0.000000 0.000000 0.000000 17.087252 -18.584002 0.022655 60.140151 -5.847541 -14.596691 3.258838 32.387248 0.005830 -3.868894 3.781123 -0.134384 0.144012 -0.069717 -0.000000 0.000000 0.000000 0.000000 0.000000 0.000000 0.000000 
4.255600 17.086346 -2.522127 -143.502487 81.533859 -137.459440 -13.722875 4.880252 -0.586649 -2.211478 18.748591 -4.454918 0.517510 2.659514 46.882809 2.606315 13.845823 22.692321 5.768800 -0.000000 -33.136200 6.236162 -2.194287 4.502322 17.898114 6.065326 -20.729825 4.533300 0.497072 7.987581 1.239992 7.034589 2.403420 0.706900 0.000000 -25.954500 7.053405 -5.492324 -5.341795 1.160143 -6.273342 -3.596652 -5.833125 -6.305226 1.650030 10.172016 -19.030725 -9.895226 -3.332530 -0.241499 -0.508901 0.000000 0.000000 0.000000 -3.339712 5.779388 0.073521 -72.732549 -4.425282 3.063102 -2.278877 -44.577876 -0.019992 8.283383 -1.272711 -0.104318 -0.087668 0.164451 0.000000 0.000000 0.000000 0.000000 0.000000 0.000000 0.000000 17.440555 -18.251620 0.010939 60.668182 -5.165533 -14.084189 3.246383 32.301794 0.006067 -4.057534 4.042144 -0.150368 0.142996 -0.071834 -0.000000 0.000000 0.000000 0.000000 0.000000 0.000000 0.000000 
4.406944 17.100817 -2.546398 -144.374608 80.966983 -138.420231 -13.748182 4.758330 -0.718761 -2.019106 19.183575 -5.793059 0.558428 2.785291 49.009292 2.758863 15.917551 20.635552 6.378099 0.000000 -29.567300 6.200396 -2.245193 4.459388 18.193144 5.814929 -20.064957 4.532896 0.516753 7.999443 1.161596 6.552221 2.061210 0.591100 -0.000000 -25.362199 7.098872 -5.365785 -5.203577 1.124193 -6.148127 -3.572010 -5.963530 -6.175991 1.638421 10.372930 -18.771408 -9.903879 -3.381445 -0.245489 -0.512869 0.000000 0.000000 0.000000 -3.258389 6.002854 0.091900 -72.936194 -3.866695 3.610008 -2.273056 -44.146525 -0.018999 8.225176 -1.206632 -0.098248 -0.086800 0.157420 0.000000 0.000000 0.000000 0.000000 0.000000 0.000000 0.000000 17.787105 -17.883734 -0.000638 61.261425 -4.503104 -13.582110 3.229903 32.207731 0.006292 -4.283352 4.332517 -0.169752 0.142103 -0.074306 -0.000000 0.000000 0.000000 0.000000 0.000000 0.000000 0.000000 
4.555402 17.115778 -2.568928 -145.557861 80.391204 -139.665475 -13.742128 4.649084 -0.813849 -1.976657 19.371077 -7.125604 0.594911 2.917844 50.984730 2.878787 17.550881 18.447913 6.648500 0.000000 -26.630800 6.193627 -2.285365 4.404163 18.411234 5.552434 -19.457635 4.510239 0.530339 8.033194 1.066763 5.960629 1.759838 0.464801 0.000000 -25.112200 7.084994 -5.237361 -5.082807 1.075789 -6.016961 -3.550526 -6.096593 -6.041052 1.625112 10.562304 -18.480320 -9.897603 -3.431404 -0.249721 -0.512816 0.000000 0.000000 0.000000 -3.199249 6.231419 0.115627 -73.046606 -3.309514 4.244672 -2.270546 -43.742574 -0.017857 8.114262 -1.135425 -0.091373 -0.085840 0.150214 0.000000 0.000000 0.000000 0.000000 0.000000 0.000000 0.000000 18.119996 -17.479571 -0.012879 61.912349 -3.862269 -13.078689 3.208742 32.108741 0.006474 -4.547831 4.641796 -0.192734 0.141351 -0.077081 -0.000000 0.000000 0.000000 0.000000 0.000000 0.000000 0.000000 
4.701093 17.131046 -2.590237 -146.972002 79.795386 -141.117251 -13.710218 4.551228 -0.871750 -2.061258 19.324989 -8.446477 0.628693 3.050519 52.794627 2.964499 18.750062 16.190585 6.615500 -0.000000 -24.209800 6.212247 -2.316773 4.335475 18.564935 5.274696 -18.903547 4.468387 0.537653 8.095504 0.957242 5.280217 1.483814 0.330600 0.000000 -25.106400 7.022322 -5.106943 -4.978296 1.017927 -5.880589 -3.532732 -6.229429 -5.901335 1.608239 10.731503 -18.156347 -9.875057 -3.481225 -0.254104 -0.508418 0.000000 0.000000 0.000000 -3.164700 6.456918 0.144974 -73.074240 -2.751027 4.939230 -2.270955 -43.363268 -0.016602 7.953585 -1.057857 -0.083594 -0.084744 0.142869 0.000000 0.000000 0.000000 0.000000 0.000000 0.000000 0.000000 18.424676 -17.038829 -0.024464 62.618447 -3.244029 -12.573681 3.183115 32.004777 0.006587 -4.841201 4.957907 -0.218715 0.140706 -0.080133 -0.000000 0.000000 0.000000 0.000000 0.000000 0.000000 0.000000 
